<svg id="Layer_1" data-name="Layer 1" xmlns="http://www.w3.org/2000/svg" viewBox="0 0 336.37 151.56"><defs><style>.cls-1{fill:#001852;}.cls-2{fill:#fd8379;}</style></defs><path class="cls-1" d="M27.47,71.34c-1.09-2.38-3.21-3.57-6.38-3.57q-5.5,0-7.41,3.57a13.84,13.84,0,0,0-1,6.06v29.65H-.42V57.87H12.1v7.19a20.66,20.66,0,0,1,4.52-5.47,15.46,15.46,0,0,1,9.72-2.89,15.43,15.43,0,0,1,9.13,2.48,14.5,14.5,0,0,1,4.24,5.92A16.39,16.39,0,0,1,46,58.73a19.21,19.21,0,0,1,8.85-2A17.22,17.22,0,0,1,61.27,58,14.38,14.38,0,0,1,67,62.39a14.11,14.11,0,0,1,2.8,6.33A43.72,43.72,0,0,1,70.27,76l-.09,31.05H57V75.68a10.2,10.2,0,0,0-.91-4.61q-1.71-3.43-6.32-3.44c-3.56,0-6,1.48-7.37,4.43a14,14,0,0,0-1,5.65v29.34h-13V77.71A16.55,16.55,0,0,0,27.47,71.34Z"/><path class="cls-1" d="M102.13,94.12,112.3,57.78H126l-16.9,48.45q-4.87,14-7.73,17.38T90,127q-1.71,0-2.76,0c-.69,0-1.73-.06-3.11-.15V116.49l1.62.09a20.45,20.45,0,0,0,3.62-.13,6.51,6.51,0,0,0,2.89-1,7,7,0,0,0,2.1-3.21c.65-1.63.91-2.62.79-3L77.05,57.78H91.37Z"/><path class="cls-1" d="M285.12,75.45h-13.2a11.52,11.52,0,0,0-1.85-5q-2.18-3-6.74-3-6.51,0-8.9,6.46a26.88,26.88,0,0,0-1.27,9.13,24.62,24.62,0,0,0,1.27,8.72q2.3,6.15,8.68,6.15,4.51,0,6.41-2.44a12.09,12.09,0,0,0,2.31-6.33H285a21.53,21.53,0,0,1-4.25,11.12q-6.06,8.46-17.94,8.45t-17.49-7.05q-5.61-7-5.61-18.3,0-12.7,6.2-19.75t17.08-7q9.27,0,15.16,4.16T285.12,75.45Z"/><path class="cls-1" d="M336.14,92.58c-.33,2.93-1.85,5.89-4.56,8.91q-6.33,7.19-17.72,7.18a25,25,0,0,1-16.59-6q-7.18-6.06-7.18-19.71,0-12.8,6.48-19.61t16.84-6.83a25.74,25.74,0,0,1,11.07,2.31,19.35,19.35,0,0,1,8.14,7.27,24.85,24.85,0,0,1,3.75,10.17,65.85,65.85,0,0,1,.41,9.76H303.06q.27,7.42,4.65,10.4a10.94,10.94,0,0,0,6.42,1.85A9.25,9.25,0,0,0,320.6,96,10.66,10.66,0,0,0,323,92.58ZM323.4,77.49c-.21-3.41-1.25-6-3.1-7.75a9.58,9.58,0,0,0-6.89-2.65,8.78,8.78,0,0,0-6.94,2.8,14,14,0,0,0-3.09,7.6Z"/><path class="cls-1" d="M209.7,100.42l-34.33,7.64-8.22,30.73-31.3,11.6L183.31,0l22.28,8.26L228.74,116l-14.54,5.39Zm-4.39-18.79-10.5-48.14L181.65,83.93Z"/><polygon class="cls-2" points="187.3 80.32 199.67 79.12 194.18 53.95 191.75 63.24 194.95 77.94 187.69 78.81 187.3 80.32"/><polygon class="cls-2" points="205.72 107.46 200.8 108.56 203.34 120.3 208.79 121.7 205.72 107.46"/><polygon class="cls-2" points="130.56 149.7 117.33 146.37 163.09 1.36 177.79 0 130.56 149.7"/></svg>