<?xml version="1.0" encoding="UTF-8" standalone="no"?>
<!DOCTYPE svg PUBLIC "-//W3C//DTD SVG 1.1//EN"
 "http://www.w3.org/Graphics/SVG/1.1/DTD/svg11.dtd">
<!-- Generated by graphviz version 2.40.1 (20161225.0304)
 -->
<!-- Title: controllers_diagram Pages: 1 -->
<svg width="430pt" height="326pt"
 viewBox="0.00 0.00 429.78 326.00" xmlns="http://www.w3.org/2000/svg" xmlns:xlink="http://www.w3.org/1999/xlink">
<g id="graph0" class="graph" transform="scale(1 1) rotate(0) translate(4 322)">
<title>controllers_diagram</title>
<polygon fill="transparent" stroke="transparent" points="-4,4 -4,-322 425.7793,-322 425.7793,4 -4,4"/>
<!-- _diagram_info -->
<g id="node1" class="node">
<title>_diagram_info</title>
<text text-anchor="start" x="173" y="-88.6" font-family="Times,serif" font-size="13.00" fill="#000000">Controllers diagram</text>
<text text-anchor="start" x="173" y="-75.6" font-family="Times,serif" font-size="13.00" fill="#000000">Date: Nov 23 2018 &#45; 16:29</text>
<text text-anchor="start" x="173" y="-62.6" font-family="Times,serif" font-size="13.00" fill="#000000">Migration version: 20181122122026</text>
<text text-anchor="start" x="173" y="-49.6" font-family="Times,serif" font-size="13.00" fill="#000000">Generated by RailRoady 1.5.3</text>
<text text-anchor="start" x="173" y="-36.6" font-family="Times,serif" font-size="13.00" fill="#000000">http://railroady.prestonlee.com</text>
</g>
<!-- ApplicationController -->
<g id="node2" class="node">
<title>ApplicationController</title>
<path fill="none" stroke="#000000" d="M12,-225.5C12,-225.5 127.6416,-225.5 127.6416,-225.5 133.6416,-225.5 139.6416,-231.5 139.6416,-237.5 139.6416,-237.5 139.6416,-305.5 139.6416,-305.5 139.6416,-311.5 133.6416,-317.5 127.6416,-317.5 127.6416,-317.5 12,-317.5 12,-317.5 6,-317.5 0,-311.5 0,-305.5 0,-305.5 0,-237.5 0,-237.5 0,-231.5 6,-225.5 12,-225.5"/>
<text text-anchor="middle" x="69.8208" y="-302.3" font-family="Times,serif" font-size="14.00" fill="#000000">ApplicationController</text>
<polyline fill="none" stroke="#000000" points="0,-295.5 139.6416,-295.5 "/>
<polyline fill="none" stroke="#000000" points="0,-271.5 139.6416,-271.5 "/>
<polyline fill="none" stroke="#000000" points="0,-247.5 139.6416,-247.5 "/>
<text text-anchor="start" x="8" y="-232.3" font-family="Times,serif" font-size="14.00" fill="#000000">_layout</text>
</g>
<!-- PostsController -->
<g id="node3" class="node">
<title>PostsController</title>
<path fill="none" stroke="#000000" d="M42,-.5C42,-.5 121.1172,-.5 121.1172,-.5 127.1172,-.5 133.1172,-6.5 133.1172,-12.5 133.1172,-12.5 133.1172,-176.5 133.1172,-176.5 133.1172,-182.5 127.1172,-188.5 121.1172,-188.5 121.1172,-188.5 42,-188.5 42,-188.5 36,-188.5 30,-182.5 30,-176.5 30,-176.5 30,-12.5 30,-12.5 30,-6.5 36,-.5 42,-.5"/>
<text text-anchor="middle" x="81.5586" y="-173.3" font-family="Times,serif" font-size="14.00" fill="#000000">PostsController</text>
<polyline fill="none" stroke="#000000" points="30,-166.5 133.1172,-166.5 "/>
<text text-anchor="start" x="38" y="-151.3" font-family="Times,serif" font-size="14.00" fill="#000000">create</text>
<text text-anchor="start" x="38" y="-137.3" font-family="Times,serif" font-size="14.00" fill="#000000">destroy</text>
<text text-anchor="start" x="38" y="-123.3" font-family="Times,serif" font-size="14.00" fill="#000000">edit</text>
<text text-anchor="start" x="38" y="-109.3" font-family="Times,serif" font-size="14.00" fill="#000000">index</text>
<text text-anchor="start" x="38" y="-95.3" font-family="Times,serif" font-size="14.00" fill="#000000">new</text>
<text text-anchor="start" x="38" y="-81.3" font-family="Times,serif" font-size="14.00" fill="#000000">update</text>
<polyline fill="none" stroke="#000000" points="30,-74.5 133.1172,-74.5 "/>
<polyline fill="none" stroke="#000000" points="30,-50.5 133.1172,-50.5 "/>
<text text-anchor="start" x="38" y="-35.3" font-family="Times,serif" font-size="14.00" fill="#000000">_layout</text>
<text text-anchor="start" x="38" y="-21.3" font-family="Times,serif" font-size="14.00" fill="#000000">post_params</text>
<text text-anchor="start" x="38" y="-7.3" font-family="Times,serif" font-size="14.00" fill="#000000">require_login</text>
</g>
<!-- SessionsController -->
<g id="node4" class="node">
<title>SessionsController</title>
<path fill="none" stroke="#000000" d="M312,-135.5C312,-135.5 409.7793,-135.5 409.7793,-135.5 415.7793,-135.5 421.7793,-141.5 421.7793,-147.5 421.7793,-147.5 421.7793,-241.5 421.7793,-241.5 421.7793,-247.5 415.7793,-253.5 409.7793,-253.5 409.7793,-253.5 312,-253.5 312,-253.5 306,-253.5 300,-247.5 300,-241.5 300,-241.5 300,-147.5 300,-147.5 300,-141.5 306,-135.5 312,-135.5"/>
<text text-anchor="middle" x="360.8896" y="-238.3" font-family="Times,serif" font-size="14.00" fill="#000000">SessionsController</text>
<polyline fill="none" stroke="#000000" points="300,-231.5 421.7793,-231.5 "/>
<text text-anchor="start" x="308" y="-216.3" font-family="Times,serif" font-size="14.00" fill="#000000">create</text>
<text text-anchor="start" x="308" y="-202.3" font-family="Times,serif" font-size="14.00" fill="#000000">destroy</text>
<text text-anchor="start" x="308" y="-188.3" font-family="Times,serif" font-size="14.00" fill="#000000">new</text>
<polyline fill="none" stroke="#000000" points="300,-181.5 421.7793,-181.5 "/>
<polyline fill="none" stroke="#000000" points="300,-157.5 421.7793,-157.5 "/>
<text text-anchor="start" x="308" y="-142.3" font-family="Times,serif" font-size="14.00" fill="#000000">_layout</text>
</g>
<!-- UsersController -->
<g id="node5" class="node">
<title>UsersController</title>
<path fill="none" stroke="#000000" d="M177,-135.5C177,-135.5 258.4277,-135.5 258.4277,-135.5 264.4277,-135.5 270.4277,-141.5 270.4277,-147.5 270.4277,-147.5 270.4277,-269.5 270.4277,-269.5 270.4277,-275.5 264.4277,-281.5 258.4277,-281.5 258.4277,-281.5 177,-281.5 177,-281.5 171,-281.5 165,-275.5 165,-269.5 165,-269.5 165,-147.5 165,-147.5 165,-141.5 171,-135.5 177,-135.5"/>
<text text-anchor="middle" x="217.7139" y="-266.3" font-family="Times,serif" font-size="14.00" fill="#000000">UsersController</text>
<polyline fill="none" stroke="#000000" points="165,-259.5 270.4277,-259.5 "/>
<text text-anchor="start" x="173" y="-244.3" font-family="Times,serif" font-size="14.00" fill="#000000">create</text>
<text text-anchor="start" x="173" y="-230.3" font-family="Times,serif" font-size="14.00" fill="#000000">new</text>
<text text-anchor="start" x="173" y="-216.3" font-family="Times,serif" font-size="14.00" fill="#000000">show</text>
<polyline fill="none" stroke="#000000" points="165,-209.5 270.4277,-209.5 "/>
<polyline fill="none" stroke="#000000" points="165,-185.5 270.4277,-185.5 "/>
<text text-anchor="start" x="173" y="-170.3" font-family="Times,serif" font-size="14.00" fill="#000000">_layout</text>
<text text-anchor="start" x="173" y="-156.3" font-family="Times,serif" font-size="14.00" fill="#000000">require_login</text>
<text text-anchor="start" x="173" y="-142.3" font-family="Times,serif" font-size="14.00" fill="#000000">user_params</text>
</g>
</g>
</svg>
