<?xml version="1.0" encoding="UTF-8" standalone="no"?>
<!DOCTYPE svg PUBLIC "-//W3C//DTD SVG 1.1//EN"
 "http://www.w3.org/Graphics/SVG/1.1/DTD/svg11.dtd">
<!-- Generated by graphviz version 2.40.1 (20161225.0304)
 -->
<!-- Title: models_diagram Pages: 1 -->
<svg width="494pt" height="225pt"
 viewBox="0.00 0.00 494.44 225.00" xmlns="http://www.w3.org/2000/svg" xmlns:xlink="http://www.w3.org/1999/xlink">
<g id="graph0" class="graph" transform="scale(1 1) rotate(0) translate(4 221)">
<title>models_diagram</title>
<polygon fill="transparent" stroke="transparent" points="-4,4 -4,-221 490.4381,-221 490.4381,4 -4,4"/>
<!-- _diagram_info -->
<g id="node1" class="node">
<title>_diagram_info</title>
<text text-anchor="start" x="8" y="-202.6" font-family="Times,serif" font-size="13.00" fill="#000000">Models diagram</text>
<text text-anchor="start" x="8" y="-189.6" font-family="Times,serif" font-size="13.00" fill="#000000">Date: Nov 23 2018 &#45; 16:29</text>
<text text-anchor="start" x="8" y="-176.6" font-family="Times,serif" font-size="13.00" fill="#000000">Migration version: 20181122122026</text>
</g>
<!-- ApplicationRecord -->
<g id="node2" class="node">
<title>ApplicationRecord</title>
<ellipse fill="none" stroke="#000000" cx="302.4497" cy="-180.5" rx="77.2916" ry="18"/>
<text text-anchor="middle" x="302.4497" y="-176.3" font-family="Times,serif" font-size="14.00" fill="#000000">ApplicationRecord</text>
</g>
<!-- Comment -->
<g id="node3" class="node">
<title>Comment</title>
<ellipse fill="none" stroke="#000000" cx="423.4497" cy="-18" rx="44.9768" ry="18"/>
<text text-anchor="middle" x="423.4497" y="-13.8" font-family="Times,serif" font-size="14.00" fill="#000000">Comment</text>
</g>
<!-- Comment&#45;&gt;Comment -->
<g id="edge1" class="edge">
<title>Comment&#45;&gt;Comment</title>
<path fill="none" stroke="#251a77" d="M463.2155,-31.4986C476.1517,-31.4084 486.4381,-26.9088 486.4381,-18 486.4381,-9.5114 477.0992,-5.0259 465.0276,-4.5436"/>
<ellipse fill="none" stroke="#251a77" cx="458.8792" cy="-31.2313" rx="4" ry="4"/>
<polygon fill="#251a77" stroke="#251a77" points="464.876,-4.5505 454.6778,-.5198 459.8814,-4.7828 454.8868,-5.015 454.8868,-5.015 454.8868,-5.015 459.8814,-4.7828 455.0958,-9.5101 464.876,-4.5505 464.876,-4.5505"/>
</g>
<!-- Post -->
<g id="node4" class="node">
<title>Post</title>
<ellipse fill="none" stroke="#000000" cx="451.4497" cy="-90" rx="27" ry="18"/>
<text text-anchor="middle" x="451.4497" y="-85.8" font-family="Times,serif" font-size="14.00" fill="#000000">Post</text>
</g>
<!-- Post&#45;&gt;Comment -->
<g id="edge2" class="edge">
<title>Post&#45;&gt;Comment</title>
<path fill="none" stroke="#70618e" d="M441.6921,-64.909C439.2639,-58.6651 436.6477,-51.9376 434.1757,-45.5812"/>
<ellipse fill="none" stroke="#70618e" cx="443.2219" cy="-68.8428" rx="4" ry="4"/>
<polygon fill="#70618e" stroke="#70618e" points="434.0822,-45.3406 434.6517,-34.3896 432.27,-40.6806 430.4577,-36.0206 430.4577,-36.0206 430.4577,-36.0206 432.27,-40.6806 426.2637,-37.6516 434.0822,-45.3406 434.0822,-45.3406"/>
</g>
<!-- User -->
<g id="node5" class="node">
<title>User</title>
<ellipse fill="none" stroke="#000000" cx="424.4497" cy="-180.5" rx="27" ry="18"/>
<text text-anchor="middle" x="424.4497" y="-176.3" font-family="Times,serif" font-size="14.00" fill="#000000">User</text>
</g>
<!-- User&#45;&gt;Comment -->
<g id="edge4" class="edge">
<title>User&#45;&gt;Comment</title>
<path fill="none" stroke="#b3e14f" d="M419.9753,-154.2874C416.7777,-132.3189 413.3778,-100.1239 415.4497,-72 416.0666,-63.6264 417.2146,-54.5812 418.4523,-46.3322"/>
<ellipse fill="none" stroke="#b3e14f" cx="420.6203" cy="-158.5078" rx="4" ry="4"/>
<polygon fill="#b3e14f" stroke="#b3e14f" points="418.4582,-46.2946 424.4785,-37.129 419.2465,-41.3571 420.0347,-36.4196 420.0347,-36.4196 420.0347,-36.4196 419.2465,-41.3571 415.591,-35.7102 418.4582,-46.2946 418.4582,-46.2946"/>
</g>
<!-- User&#45;&gt;Post -->
<g id="edge3" class="edge">
<title>User&#45;&gt;Post</title>
<path fill="none" stroke="#bfd916" d="M432.1436,-154.7112C435.6017,-143.1202 439.6877,-129.4245 443.2082,-117.6242"/>
<ellipse fill="none" stroke="#bfd916" cx="430.9276" cy="-158.7871" rx="4" ry="4"/>
<polygon fill="#bfd916" stroke="#bfd916" points="443.2675,-117.4254 450.4386,-109.1293 444.697,-112.6341 446.1265,-107.8427 446.1265,-107.8427 446.1265,-107.8427 444.697,-112.6341 441.8143,-106.5562 443.2675,-117.4254 443.2675,-117.4254"/>
</g>
</g>
</svg>
