<?xml version="1.0" encoding="UTF-8" standalone="no"?>
<!DOCTYPE svg PUBLIC "-//W3C//DTD SVG 1.1//EN"
 "http://www.w3.org/Graphics/SVG/1.1/DTD/svg11.dtd">
<!-- Generated by graphviz version 2.40.1 (20161225.0304)
 -->
<!-- Title: models_diagram Pages: 1 -->
<svg width="729pt" height="411pt"
 viewBox="0.00 0.00 729.31 411.00" xmlns="http://www.w3.org/2000/svg" xmlns:xlink="http://www.w3.org/1999/xlink">
<g id="graph0" class="graph" transform="scale(1 1) rotate(0) translate(4 407)">
<title>models_diagram</title>
<polygon fill="transparent" stroke="transparent" points="-4,4 -4,-407 725.312,-407 725.312,4 -4,4"/>
<!-- _diagram_info -->
<g id="node1" class="node">
<title>_diagram_info</title>
<text text-anchor="start" x="8" y="-367.6" font-family="Times,serif" font-size="13.00" fill="#000000">Models diagram</text>
<text text-anchor="start" x="8" y="-354.6" font-family="Times,serif" font-size="13.00" fill="#000000">Date: Nov 23 2018 &#45; 16:29</text>
<text text-anchor="start" x="8" y="-341.6" font-family="Times,serif" font-size="13.00" fill="#000000">Migration version: 20181122122026</text>
<text text-anchor="start" x="8" y="-328.6" font-family="Times,serif" font-size="13.00" fill="#000000">Generated by RailRoady 1.5.3</text>
<text text-anchor="start" x="8" y="-315.6" font-family="Times,serif" font-size="13.00" fill="#000000">http://railroady.prestonlee.com</text>
</g>
<!-- ApplicationRecord -->
<g id="node2" class="node">
<title>ApplicationRecord</title>
<ellipse fill="none" stroke="#000000" cx="302.4497" cy="-345.5" rx="77.2916" ry="18"/>
<text text-anchor="middle" x="302.4497" y="-341.3" font-family="Times,serif" font-size="14.00" fill="#000000">ApplicationRecord</text>
</g>
<!-- Comment -->
<g id="node3" class="node">
<title>Comment</title>
<path fill="none" stroke="#000000" d="M409.5874,-.5C409.5874,-.5 633.312,-.5 633.312,-.5 639.312,-.5 645.312,-6.5 645.312,-12.5 645.312,-12.5 645.312,-102.5 645.312,-102.5 645.312,-108.5 639.312,-114.5 633.312,-114.5 633.312,-114.5 409.5874,-114.5 409.5874,-114.5 403.5874,-114.5 397.5874,-108.5 397.5874,-102.5 397.5874,-102.5 397.5874,-12.5 397.5874,-12.5 397.5874,-6.5 403.5874,-.5 409.5874,-.5"/>
<text text-anchor="middle" x="521.4497" y="-99.3" font-family="Times,serif" font-size="14.00" fill="#000000">Comment</text>
<polyline fill="none" stroke="#000000" points="397.5874,-92.5 645.312,-92.5 "/>
<text text-anchor="start" x="405.5874" y="-77.3" font-family="Times,serif" font-size="14.00" fill="#000000">id :bigint</text>
<text text-anchor="start" x="405.5874" y="-63.3" font-family="Times,serif" font-size="14.00" fill="#000000">body :text</text>
<text text-anchor="start" x="405.5874" y="-49.3" font-family="Times,serif" font-size="14.00" fill="#000000">commentable_type :character varying</text>
<text text-anchor="start" x="405.5874" y="-35.3" font-family="Times,serif" font-size="14.00" fill="#000000">commentable_id :bigint</text>
<text text-anchor="start" x="405.5874" y="-21.3" font-family="Times,serif" font-size="14.00" fill="#000000">created_at :timestamp without time zone</text>
<text text-anchor="start" x="405.5874" y="-7.3" font-family="Times,serif" font-size="14.00" fill="#000000">updated_at :timestamp without time zone</text>
</g>
<!-- Comment&#45;&gt;Comment -->
<g id="edge1" class="edge">
<title>Comment&#45;&gt;Comment</title>
<path fill="none" stroke="#32b95f" d="M652.8898,-74.9187C659.4473,-70.5836 663.312,-64.7773 663.312,-57.5 663.312,-50.8291 660.0646,-45.3943 654.4724,-41.1957"/>
<ellipse fill="none" stroke="#32b95f" cx="649.0287" cy="-76.9216" rx="4" ry="4"/>
<polygon fill="#32b95f" stroke="#32b95f" points="654.2351,-41.0649 647.6508,-32.2958 649.8566,-38.6507 645.478,-36.2365 645.478,-36.2365 645.478,-36.2365 649.8566,-38.6507 643.3052,-40.1772 654.2351,-41.0649 654.2351,-41.0649"/>
</g>
<!-- Post -->
<g id="node4" class="node">
<title>Post</title>
<path fill="none" stroke="#000000" d="M485.5874,-151.5C485.5874,-151.5 709.312,-151.5 709.312,-151.5 715.312,-151.5 721.312,-157.5 721.312,-163.5 721.312,-163.5 721.312,-239.5 721.312,-239.5 721.312,-245.5 715.312,-251.5 709.312,-251.5 709.312,-251.5 485.5874,-251.5 485.5874,-251.5 479.5874,-251.5 473.5874,-245.5 473.5874,-239.5 473.5874,-239.5 473.5874,-163.5 473.5874,-163.5 473.5874,-157.5 479.5874,-151.5 485.5874,-151.5"/>
<text text-anchor="middle" x="597.4497" y="-236.3" font-family="Times,serif" font-size="14.00" fill="#000000">Post</text>
<polyline fill="none" stroke="#000000" points="473.5874,-229.5 721.312,-229.5 "/>
<text text-anchor="start" x="481.5874" y="-214.3" font-family="Times,serif" font-size="14.00" fill="#000000">id :bigint</text>
<text text-anchor="start" x="481.5874" y="-200.3" font-family="Times,serif" font-size="14.00" fill="#000000">message :character varying</text>
<text text-anchor="start" x="481.5874" y="-186.3" font-family="Times,serif" font-size="14.00" fill="#000000">created_at :timestamp without time zone</text>
<text text-anchor="start" x="481.5874" y="-172.3" font-family="Times,serif" font-size="14.00" fill="#000000">updated_at :timestamp without time zone</text>
<text text-anchor="start" x="481.5874" y="-158.3" font-family="Times,serif" font-size="14.00" fill="#000000">user_id :integer</text>
</g>
<!-- Post&#45;&gt;Comment -->
<g id="edge2" class="edge">
<title>Post&#45;&gt;Comment</title>
<path fill="none" stroke="#a83542" d="M567.0639,-143.9269C563.6053,-137.3737 560.0589,-130.6543 556.5458,-123.9979"/>
<ellipse fill="none" stroke="#a83542" cx="569.0015" cy="-147.5982" rx="4" ry="4"/>
<polygon fill="#a83542" stroke="#a83542" points="556.4549,-123.8255 555.767,-112.8812 554.1211,-119.4036 551.7872,-114.9817 551.7872,-114.9817 551.7872,-114.9817 554.1211,-119.4036 547.8075,-117.0821 556.4549,-123.8255 556.4549,-123.8255"/>
</g>
<!-- User -->
<g id="node5" class="node">
<title>User</title>
<path fill="none" stroke="#000000" d="M409.5874,-288.5C409.5874,-288.5 633.312,-288.5 633.312,-288.5 639.312,-288.5 645.312,-294.5 645.312,-300.5 645.312,-300.5 645.312,-390.5 645.312,-390.5 645.312,-396.5 639.312,-402.5 633.312,-402.5 633.312,-402.5 409.5874,-402.5 409.5874,-402.5 403.5874,-402.5 397.5874,-396.5 397.5874,-390.5 397.5874,-390.5 397.5874,-300.5 397.5874,-300.5 397.5874,-294.5 403.5874,-288.5 409.5874,-288.5"/>
<text text-anchor="middle" x="521.4497" y="-387.3" font-family="Times,serif" font-size="14.00" fill="#000000">User</text>
<polyline fill="none" stroke="#000000" points="397.5874,-380.5 645.312,-380.5 "/>
<text text-anchor="start" x="405.5874" y="-365.3" font-family="Times,serif" font-size="14.00" fill="#000000">id :bigint</text>
<text text-anchor="start" x="405.5874" y="-351.3" font-family="Times,serif" font-size="14.00" fill="#000000">name :character varying</text>
<text text-anchor="start" x="405.5874" y="-337.3" font-family="Times,serif" font-size="14.00" fill="#000000">email :character varying</text>
<text text-anchor="start" x="405.5874" y="-323.3" font-family="Times,serif" font-size="14.00" fill="#000000">created_at :timestamp without time zone</text>
<text text-anchor="start" x="405.5874" y="-309.3" font-family="Times,serif" font-size="14.00" fill="#000000">updated_at :timestamp without time zone</text>
<text text-anchor="start" x="405.5874" y="-295.3" font-family="Times,serif" font-size="14.00" fill="#000000">password_digest :character varying</text>
</g>
<!-- User&#45;&gt;Comment -->
<g id="edge4" class="edge">
<title>User&#45;&gt;Comment</title>
<path fill="none" stroke="#9e946b" d="M476.2221,-281.2854C471.3943,-271.8267 467.2345,-261.9181 464.4497,-252 452.315,-208.7824 452.315,-194.2176 464.4497,-151 467.0434,-141.7625 470.8298,-132.5333 475.2378,-123.6682"/>
<ellipse fill="none" stroke="#9e946b" cx="478.1488" cy="-284.8949" rx="4" ry="4"/>
<polygon fill="#9e946b" stroke="#9e946b" points="475.3677,-123.4218 484.0129,-116.6756 477.7001,-118.9991 480.0325,-114.5764 480.0325,-114.5764 480.0325,-114.5764 477.7001,-118.9991 476.0521,-112.4773 475.3677,-123.4218 475.3677,-123.4218"/>
</g>
<!-- User&#45;&gt;Post -->
<g id="edge3" class="edge">
<title>User&#45;&gt;Post</title>
<path fill="none" stroke="#f699d2" d="M555.4696,-281.0413C559.0458,-274.2652 562.6696,-267.3991 566.2124,-260.6865"/>
<ellipse fill="none" stroke="#f699d2" cx="553.5724" cy="-284.6361" rx="4" ry="4"/>
<polygon fill="#f699d2" stroke="#f699d2" points="566.3135,-260.4949 574.9609,-253.7514 568.6473,-256.0729 570.9811,-251.651 570.9811,-251.651 570.9811,-251.651 568.6473,-256.0729 567.0014,-249.5506 566.3135,-260.4949 566.3135,-260.4949"/>
</g>
</g>
</svg>
