<?xml version="1.0" standalone="no"?>
<!DOCTYPE svg PUBLIC "-//W3C//DTD SVG 20010904//EN"
 "http://www.w3.org/TR/2001/REC-SVG-20010904/DTD/svg10.dtd">
<svg version="1.0" xmlns="http://www.w3.org/2000/svg"
 width="260.000000pt" height="260.000000pt" viewBox="0 0 260.000000 260.000000"
 preserveAspectRatio="xMidYMid meet">
<metadata>
Created by potrace 1.14, written by Peter Selinger 2001-2017
</metadata>
<g transform="translate(0.000000,260.000000) scale(0.100000,-0.100000)"
fill="#000000" stroke="none">
<path d="M1205 2589 c-11 -6 -72 -80 -135 -166 -63 -85 -121 -162 -128 -171
-7 -10 -105 -141 -218 -292 -112 -151 -210 -282 -217 -290 -6 -8 -50 -67 -97
-130 -78 -107 -149 -196 -193 -245 -36 -39 -96 -151 -112 -209 -33 -115 -7
-271 67 -394 65 -107 220 -218 333 -238 100 -18 262 -7 365 25 71 22 160 74
160 92 0 7 2 10 5 7 3 -3 -62 -119 -145 -259 -82 -139 -150 -263 -150 -274 0
-12 5 -26 12 -33 16 -16 949 -17 979 -2 35 19 23 50 -81 220 -5 8 -41 69 -79
135 -39 66 -83 140 -97 164 l-27 44 34 -25 c94 -71 206 -101 374 -101 105 0
128 3 186 26 225 86 362 287 354 518 -4 108 -58 231 -142 324 -57 64 -113 139
-699 925 -129 173 -246 325 -260 338 -27 23 -56 27 -89 11z"/>
<path d="M315 2400 c-3 -5 -1 -10 4 -10 6 0 11 5 11 10 0 6 -2 10 -4 10 -3 0
-8 -4 -11 -10z"/>
<path d="M305 2328 c-18 -128 -84 -186 -236 -204 -50 -6 -64 -14 -28 -15 74
-2 170 -34 201 -66 35 -36 56 -88 64 -158 4 -30 12 -58 18 -62 6 -3 8 -3 5 1
-9 10 17 139 34 173 32 60 91 93 202 109 45 7 47 8 23 15 -15 4 -46 10 -70 13
-77 11 -124 42 -152 99 -14 29 -28 73 -32 100 -3 26 -10 47 -14 47 -5 0 -11
-24 -15 -52z"/>
<path d="M2283 597 c-1 -56 -27 -148 -51 -184 -23 -37 -74 -62 -150 -75 -74
-12 -95 -27 -42 -29 17 -1 33 -2 38 -3 4 -1 22 -6 41 -10 93 -22 134 -75 153
-195 13 -84 16 -90 23 -47 3 14 7 36 9 49 10 60 29 109 52 136 30 36 116 68
187 70 48 2 29 18 -30 25 -64 7 -130 34 -155 62 -27 31 -48 89 -55 154 -6 60
-18 89 -20 47z"/>
</g>
</svg>
